<svg xmlns="http://www.w3.org/2000/svg" xml:space="preserve" style="fill-rule:evenodd;clip-rule:evenodd;stroke-linejoin:round;stroke-miterlimit:2" viewBox="0 0 40 37"><clipPath id="_clip1"><path d="M0 .001h40v36.274H0z"/></clipPath><g clip-path="url(#_clip1)"><path d="M21.686 33.278q-.44.087-.89.155c-3.034.452-5.724.16-8.008-.679l1.217 3.004c.128.31.418.518.755.518h7.262c.396 0 .669-.435.543-.786zh-.001Z" style="fill:url(#_Linear2);fill-rule:nonzero"/><path d="m19.522 27.834-3.904-9.822a7 7 0 0 0-1.108.94c-1.248 1.32-2.144 4.388-.174 6.998 1.281 1.696 3.57 1.97 5.185 1.884Z" style="fill:url(#_Linear3);fill-rule:nonzero"/><path d="M11.369 7.318 8.856.996a.8.8 0 0 0-.755-.538H.581c-.396 0-.689.414-.543.807l5.308 13.109c1.267-3.148 3.53-5.501 6.023-7.057Z" style="fill:url(#_Linear4);fill-rule:nonzero"/><path d="M33.565 14.254c-2.652 1.661-4.652 1.356-6.792 1.968-1.571.449-2.346 1.28-2.854 2.286 1.841-.142 3.287.439 4.193 1.361 1.11 1.13 1.65 2.72 1.765 4.309l4.663-10.603c-.317.241-.643.47-.974.678z" style="fill:url(#_Linear5);fill-rule:nonzero"/><path d="M20.795 33.433a18.4 18.4 0 0 1-3.754.184l-.81 1.873c-.138.352.119.786.516.786h7.262a.85.85 0 0 0 .774-.518l2.022-4.597c-1.628 1.224-3.742 1.934-6.01 2.271Z" style="fill:url(#_Linear6);fill-rule:nonzero"/><path d="M39.438.458h-7.52c-.337 0-.635.207-.774.538l-.559 1.292c2.123.198 5.143 1.437 6.905 4.578l2.463-5.601c.159-.394-.119-.807-.516-.807Z" style="fill:url(#_Linear7);fill-rule:nonzero"/><path d="M31.047 8.684a2.174 2.174 0 1 0-2.269-2.074 2.177 2.177 0 0 0 2.268 2.075zm.944-2.796a.58.58 0 0 1 .603.551.58.58 0 0 1-.551.603.58.58 0 0 1-.603-.551.58.58 0 0 1 .551-.603" style="fill:url(#_Linear8);fill-rule:nonzero"/><path d="M20.168 1.141c2.236.811 3.649 4.377 4.413 7.076.976 3.449 2.952 3.426 4.919 3.125 1.527-.234 4.526-1.963 6.084-2.363 1.694-.435 2.238-.268.859-2.351-2.172-3.278-4.914-3.669-5.768-3.708a2.9 2.9 0 0 1-1.197-.322c-1.149-.599-2.501-1.81-5.412-2.384-3.434-.677-5.283.422-3.898.925zm10.529 2.461a2.92 2.92 0 0 1 .262 5.83 2.92 2.92 0 0 1-.262-5.83" style="fill:url(#_Linear9);fill-rule:nonzero"/><path d="M23.347 13.432c.311-.573-.164-1.474-1.045-1.435-.679.031-1.36.375-2.083 1.227-1.011 1.19-1.172 2.269-.726 3.04.423.731 1.349 1.011 2.863.686 1.034-.222 1.332-.707 2.268-1.178a.062.062 0 0 0-.005-.113c-.101-.042-.295-.071-.643.034-.673.204-2.337.553-2.243-.281.068-.594.985-.823 1.613-1.982Z" style="fill:url(#_Linear10);fill-rule:nonzero"/><path d="M36.437 9.504c-2.502.342-4.708 3.177-8.133 3.182-1.691.003-4.061-1.073-4.925-3.587-1.037-3.023-1.085-3.66-2.128-3.795-.565-.073-2.205-.112-3.904.264-2.664.591-4.92 1.97-5.792 2.628-6.792 5.121-8.116 14.667-2.905 20.651 2.809 3.225 7.028 4.225 10.395 4.033 6.684-.382 9.412-4.835 9.582-7.93.204-3.714-2.66-6.427-5.779-5.13-.752.312-1.359.927-1.582 1.904-.254 1.112.146 2.821 2.285 2.868.194-.006.278-.09.286-.214.007-.111-.073-.181-.212-.245-.099-.047-1.06-.545-.758-1.598.27-.941 1.605-1.214 2.356-.424.758.796 1.051 2.214.288 3.795-.809 1.675-3.757 3.755-8.556 2.8-1.653-.33-4.638-1.925-4.902-5.524a6.45 6.45 0 0 1 2.105-5.294c1.261-1.133 2.797-1.936 4.364-2.413-.028-.875.249-1.734 1.038-2.663.823-.97 1.689-1.461 2.646-1.504.7-.032 1.303.242 1.663.834.332.545.262 1.214-.023 1.738a4.4 4.4 0 0 1-.628.881c1.945.018 3.653.434 5.059.261 3.927-.483 6.059-2.273 7.051-3.348a9 9 0 0 1 .918-.866c.386-.318.699-.602.907-.816.38-.392-.062-.578-.717-.488v.001ZM9.358 25.506c-3.332-5.02-2.667-11.11.816-15.415a14.3 14.3 0 0 1 4.259-3.152c-2.816 1.977-5.972 6.231-6.016 10.983-.028 3.041.378 5.504 1.145 7.478.219.563.13.608-.203.106Zm12.809-15.145c-4.761-.996-8.904 1.894-10.966 6.456a7 7 0 0 0-.363 1.051c-.138.523-.309.578-.255-.043.274-3.202 2.565-6.277 4.797-7.336 3.075-1.46 5.287-1.16 6.822-.407.52.256.483.388-.034.28z" style="fill:url(#_Linear11);fill-rule:nonzero"/></g><defs><linearGradient id="_Linear2" x1="0" x2="1" y1="0" y2="0" gradientTransform="rotate(90 8.692 9)scale(35.45926)" gradientUnits="userSpaceOnUse"><stop offset="0" style="stop-color:#5693fc;stop-opacity:1"/><stop offset=".34" style="stop-color:#4d83ff;stop-opacity:1"/><stop offset="1" style="stop-color:#364ecf;stop-opacity:1"/></linearGradient><linearGradient id="_Linear3" x1="0" x2="1" y1="0" y2="0" gradientTransform="rotate(90 8.176 8.177)scale(35.76592)" gradientUnits="userSpaceOnUse"><stop offset="0" style="stop-color:#5693fc;stop-opacity:1"/><stop offset=".34" style="stop-color:#4d83ff;stop-opacity:1"/><stop offset="1" style="stop-color:#364ecf;stop-opacity:1"/></linearGradient><linearGradient id="_Linear4" x1="0" x2="1" y1="0" y2="0" gradientTransform="rotate(90 2.688 2.996)scale(35.45926)" gradientUnits="userSpaceOnUse"><stop offset="0" style="stop-color:#5693fc;stop-opacity:1"/><stop offset=".34" style="stop-color:#4d83ff;stop-opacity:1"/><stop offset="1" style="stop-color:#364ecf;stop-opacity:1"/></linearGradient><linearGradient id="_Linear5" x1="0" x2="1" y1="0" y2="0" gradientTransform="rotate(90 14.46 14.768)scale(35.4593)" gradientUnits="userSpaceOnUse"><stop offset="0" style="stop-color:#5693fc;stop-opacity:1"/><stop offset=".34" style="stop-color:#4d83ff;stop-opacity:1"/><stop offset="1" style="stop-color:#364ecf;stop-opacity:1"/></linearGradient><linearGradient id="_Linear6" x1="0" x2="1" y1="0" y2="0" gradientTransform="rotate(90 10.596 10.904)scale(35.45935)" gradientUnits="userSpaceOnUse"><stop offset="0" style="stop-color:#5693fc;stop-opacity:1"/><stop offset=".34" style="stop-color:#4d83ff;stop-opacity:1"/><stop offset="1" style="stop-color:#364ecf;stop-opacity:1"/></linearGradient><linearGradient id="_Linear7" x1="0" x2="1" y1="0" y2="0" gradientTransform="rotate(90 17.493 17.8)scale(35.45926)" gradientUnits="userSpaceOnUse"><stop offset="0" style="stop-color:#5693fc;stop-opacity:1"/><stop offset=".34" style="stop-color:#4d83ff;stop-opacity:1"/><stop offset="1" style="stop-color:#364ecf;stop-opacity:1"/></linearGradient><linearGradient id="_Linear8" x1="0" x2="1" y1="0" y2="0" gradientTransform="rotate(90 15.32 15.629)scale(35.45927)" gradientUnits="userSpaceOnUse"><stop offset="0" style="stop-color:#5693fc;stop-opacity:1"/><stop offset=".34" style="stop-color:#4d83ff;stop-opacity:1"/><stop offset="1" style="stop-color:#364ecf;stop-opacity:1"/></linearGradient><linearGradient id="_Linear9" x1="0" x2="1" y1="0" y2="0" gradientTransform="rotate(90 14.078 14.386)scale(35.45934)" gradientUnits="userSpaceOnUse"><stop offset="0" style="stop-color:#5693fc;stop-opacity:1"/><stop offset=".34" style="stop-color:#4d83ff;stop-opacity:1"/><stop offset="1" style="stop-color:#364ecf;stop-opacity:1"/></linearGradient><linearGradient id="_Linear10" x1="0" x2="1" y1="0" y2="0" gradientTransform="rotate(90 10.825 11.133)scale(35.45932)" gradientUnits="userSpaceOnUse"><stop offset="0" style="stop-color:#5693fc;stop-opacity:1"/><stop offset=".34" style="stop-color:#4d83ff;stop-opacity:1"/><stop offset="1" style="stop-color:#364ecf;stop-opacity:1"/></linearGradient><linearGradient id="_Linear11" x1="0" x2="1" y1="0" y2="0" gradientTransform="rotate(90 10.536 10.844)scale(35.45927)" gradientUnits="userSpaceOnUse"><stop offset="0" style="stop-color:#5693fc;stop-opacity:1"/><stop offset=".34" style="stop-color:#4d83ff;stop-opacity:1"/><stop offset="1" style="stop-color:#364ecf;stop-opacity:1"/></linearGradient></defs></svg>