<svg xmlns="http://www.w3.org/2000/svg" width="95" height="88" viewBox="0 0 95 88"><title>
  icon
 </title><defs><path id="hugging_face__path-1" d="M13 14.789c9.828 0 13-8.763 13-13.263 0-2.338-1.572-1.602-4.09-.356-2.327 1.152-5.462 2.74-8.91 2.74-7.18 0-13-6.884-13-2.384S3.172 14.79 13 14.79"/></defs><g id="hugging_face__Page-1" fill="none" fill-rule="evenodd" stroke="none" stroke-width="1"><g id="hugging_face__icon_desktop"><g id="hugging_face__icon"><g id="hugging_face__icon_desktop"><g id="hugging_face__Group-2"><g id="hugging_face__Group"><path id="hugging_face__Fill-1" fill="#fff" fill-rule="nonzero" d="M93.793 70.08c.75 2.16.57 4.46-.43 6.46-.72 1.46-1.75 2.59-3.01 3.6-1.52 1.2-3.41 2.22-5.69 3.2-2.72 1.16-6.04 2.25-7.56 2.65-3.89 1.01-7.63 1.65-11.42 1.68-5.42.05-10.09-1.23-13.41-4.5-1.72.21-3.46.33-5.21.33-1.66 0-3.3-.1-4.93-.3-3.33 3.25-7.98 4.52-13.38 4.47-3.79-.03-7.53-.67-11.43-1.68-1.51-.4-4.83-1.49-7.55-2.65-2.28-.98-4.17-2-5.68-3.2-1.27-1.01-2.3-2.14-3.02-3.6-.99-2-1.18-4.3-.42-6.46-.7-1.65-.88-3.54-.33-5.63.25-.95.66-1.83 1.18-2.61-.11-.41-.2-.83-.26-1.29-.38-2.74.57-5.24 2.36-7.18.88-.97 1.83-1.64 2.82-2.07-.73-3.1-1.11-6.29-1.11-9.55C5.313 18.69 24.003 0 47.063 0c7.92 0 15.33 2.2 21.65 6.04 1.14.7 2.26 1.45 3.33 2.25.53.4 1.06.81 1.57 1.24.52.42 1.03.86 1.52 1.31 1.48 1.35 2.87 2.8 4.14 4.35.43.51.84 1.04 1.24 1.58q1.215 1.605 2.25 3.33c1.05 1.72 1.97 3.52 2.77 5.39.53 1.25.99 2.53 1.4 3.84a42 42 0 0 1 1.4 6.06c.1.69.19 1.39.26 2.09.14 1.4.22 2.82.22 4.27 0 3.22-.38 6.38-1.09 9.43 1.1.43 2.14 1.13 3.11 2.19 1.79 1.94 2.74 4.45 2.36 7.19-.06.45-.15.87-.26 1.28.52.78.93 1.66 1.18 2.61.55 2.09.37 3.98-.32 5.63"/><circle id="hugging_face__Oval" cx="46.75" cy="41.75" r="34.75" fill="#ffd21e" fill-rule="nonzero"/><path id="hugging_face__Oval" fill="#ffac03" fill-rule="nonzero" d="M81.5 41.75C81.5 22.558 65.942 7 46.75 7S12 22.558 12 41.75 27.558 76.5 46.75 76.5 81.5 60.942 81.5 41.75m-73.5 0C8 20.349 25.349 3 46.75 3S85.5 20.349 85.5 41.75 68.151 80.5 46.75 80.5 8 63.151 8 41.75"/><path id="hugging_face__Oval-2" fill="#3a3b45" fill-rule="nonzero" d="M57.172 31.715c.914.996.132 3.547 1.59 3.547a5 5 0 1 0-5-5c0 1.303 2.593.563 3.41 1.453" transform="rotate(-28 58.762 30.262)"/><path id="hugging_face__Oval-2" fill="#3a3b45" fill-rule="nonzero" d="M32.172 31.715c.914.996.132 3.547 1.59 3.547a5 5 0 1 0-5-5c0 1.303 2.593.563 3.41 1.453" transform="rotate(28 0 165.674)scale(-1 1)"/><g id="hugging_face__Oval-4" transform="translate(33.5 41.5)"><g id="hugging_face__Mask" fill="#3a3b45" fill-rule="nonzero"><path id="hugging_face__path-1" d="M13 14.789c9.828 0 13-8.763 13-13.263 0-2.338-1.572-1.602-4.09-.356-2.327 1.152-5.462 2.74-8.91 2.74-7.18 0-13-6.884-13-2.384S3.172 14.79 13 14.79"/></g><g id="hugging_face__Clipped"><mask id="hugging_face__mask-2" fill="#fff"><use href="#hugging_face__path-1"/></mask><path id="hugging_face__Shape" fill="#ef4e4e" fill-rule="nonzero" d="M13.25 25a8.673 8.673 0 0 0 2.643-16.936c-.833-.266-1.721 2.598-2.643 2.598-.861 0-1.693-2.882-2.479-2.649A8.673 8.673 0 0 0 13.25 25" mask="url(#hugging_face__mask-2)"/></g></g><circle id="hugging_face__Oval-3" cx="70.25" cy="33.75" r="3.25" fill="#ffd21e" fill-rule="nonzero" style="mix-blend-mode:multiply"/><circle id="hugging_face__Oval-3" cx="23.75" cy="33.75" r="3.25" fill="#ffd21e" fill-rule="nonzero" style="mix-blend-mode:multiply"/></g></g></g><g id="hugging_face__Group-4" fill-rule="nonzero" transform="translate(3 48)"><path id="hugging_face__Fill-1" fill="#ffac03" d="M14.062 0c-1.62 0-3.066.665-4.075 1.871-.624.747-1.276 1.951-1.33 3.754-.678-.195-1.331-.304-1.941-.304-1.55 0-2.95.594-3.94 1.673-1.272 1.385-1.837 3.087-1.591 4.79.117.811.388 1.538.793 2.211-.854.691-1.483 1.653-1.787 2.81a5.87 5.87 0 0 0 .792 4.742 6 6 0 0 0-.228.394c-.766 1.454-.815 3.097-.14 4.627 1.026 2.319 3.573 4.146 8.519 6.107 3.077 1.22 5.892 2 5.917 2.007 4.068 1.055 7.747 1.591 10.932 1.591 5.854 0 10.045-1.793 12.457-5.329 3.882-5.694 3.327-10.902-1.696-15.922-2.78-2.778-4.628-6.874-5.013-7.773-.776-2.662-2.828-5.621-6.24-5.621q-.432 0-.863.068c-1.494.235-2.8 1.095-3.733 2.389-1.007-1.252-1.985-2.248-2.87-2.81C16.69.429 15.358 0 14.062 0m0 4c.51 0 1.133.217 1.82.653 2.133 1.353 6.249 8.428 7.756 11.18.505.922 1.368 1.312 2.145 1.312 1.542 0 2.746-1.533.14-3.481-3.916-2.931-2.542-7.722-.672-8.017q.124-.02.24-.019c1.7 0 2.45 2.93 2.45 2.93s2.199 5.52 5.975 9.293c3.776 3.774 3.97 6.803 1.219 10.839-1.877 2.752-5.47 3.583-9.152 3.583-3.82 0-7.734-.894-9.928-1.463-.108-.028-13.451-3.797-11.761-7.005.284-.539.752-.755 1.34-.755 2.38 0 6.71 3.542 8.57 3.542.417 0 .71-.177.83-.609.793-2.845-12.057-4.041-10.974-8.162.19-.729.709-1.025 1.437-1.024 3.145 0 10.2 5.531 11.68 5.531q.17.001.238-.103c.74-1.196.335-2.031-4.888-5.192s-8.89-5.064-6.804-7.334c.24-.262.58-.378.993-.378 3.17.001 10.663 6.819 10.663 6.819s2.022 2.103 3.245 2.103c.28 0 .52-.111.682-.385.867-1.462-8.053-8.222-8.556-11.011C12.409 4.957 12.989 4 14.062 4"/><path id="hugging_face__Fill-4" fill="#ffd21e" d="M35.135 28.69c2.752-4.036 2.557-7.065-1.22-10.84-3.775-3.772-5.973-9.292-5.973-9.292s-.821-3.206-2.691-2.911-3.243 5.086.674 8.017-.78 4.92-2.287 2.169-5.622-9.827-7.756-11.18c-2.133-1.353-3.635-.595-3.132 2.194s9.424 9.549 8.556 11.012c-.868 1.462-3.927-1.72-3.927-1.72S7.807 7.43 5.723 9.7s1.58 4.172 6.804 7.334c5.224 3.16 5.629 3.996 4.888 5.192C16.673 23.42 5.143 13.7 4.06 17.82c-1.082 4.12 11.767 5.317 10.974 8.162s-9.051-5.385-10.74-2.178c-1.69 3.208 11.653 6.977 11.76 7.005 4.31 1.118 15.257 3.487 19.08-2.12"/></g><g id="hugging_face__Group-4" fill-rule="nonzero" transform="matrix(-1 0 0 1 91 48)"><path id="hugging_face__Fill-1" fill="#ffac03" d="M14.062 0c-1.62 0-3.066.665-4.075 1.871-.624.747-1.276 1.951-1.33 3.754-.678-.195-1.331-.304-1.941-.304-1.55 0-2.95.594-3.94 1.673-1.272 1.385-1.837 3.087-1.591 4.79.117.811.388 1.538.793 2.211-.854.691-1.483 1.653-1.787 2.81a5.87 5.87 0 0 0 .792 4.742 6 6 0 0 0-.228.394c-.766 1.454-.815 3.097-.14 4.627 1.026 2.319 3.573 4.146 8.519 6.107 3.077 1.22 5.892 2 5.917 2.007 4.068 1.055 7.747 1.591 10.932 1.591 5.854 0 10.045-1.793 12.457-5.329 3.882-5.694 3.327-10.902-1.696-15.922-2.78-2.778-4.628-6.874-5.013-7.773-.776-2.662-2.828-5.621-6.24-5.621q-.432 0-.863.068c-1.494.235-2.8 1.095-3.733 2.389-1.007-1.252-1.985-2.248-2.87-2.81C16.69.429 15.358 0 14.062 0m0 4c.51 0 1.133.217 1.82.653 2.133 1.353 6.249 8.428 7.756 11.18.505.922 1.368 1.312 2.145 1.312 1.542 0 2.746-1.533.14-3.481-3.916-2.931-2.542-7.722-.672-8.017q.124-.02.24-.019c1.7 0 2.45 2.93 2.45 2.93s2.199 5.52 5.975 9.293c3.776 3.774 3.97 6.803 1.219 10.839-1.877 2.752-5.47 3.583-9.152 3.583-3.82 0-7.734-.894-9.928-1.463-.108-.028-13.451-3.797-11.761-7.005.284-.539.752-.755 1.34-.755 2.38 0 6.71 3.542 8.57 3.542.417 0 .71-.177.83-.609.793-2.845-12.057-4.041-10.974-8.162.19-.729.709-1.025 1.437-1.024 3.145 0 10.2 5.531 11.68 5.531q.17.001.238-.103c.74-1.196.335-2.031-4.888-5.192s-8.89-5.064-6.804-7.334c.24-.262.58-.378.993-.378 3.17.001 10.663 6.819 10.663 6.819s2.022 2.103 3.245 2.103c.28 0 .52-.111.682-.385.867-1.462-8.053-8.222-8.556-11.011C12.409 4.957 12.989 4 14.062 4"/><path id="hugging_face__Fill-4" fill="#ffd21e" d="M35.135 28.69c2.752-4.036 2.557-7.065-1.22-10.84-3.775-3.772-5.973-9.292-5.973-9.292s-.821-3.206-2.691-2.911-3.243 5.086.674 8.017-.78 4.92-2.287 2.169-5.622-9.827-7.756-11.18c-2.133-1.353-3.635-.595-3.132 2.194s9.424 9.549 8.556 11.012c-.868 1.462-3.927-1.72-3.927-1.72S7.807 7.43 5.723 9.7s1.58 4.172 6.804 7.334c5.224 3.16 5.629 3.996 4.888 5.192C16.673 23.42 5.143 13.7 4.06 17.82c-1.082 4.12 11.767 5.317 10.974 8.162s-9.051-5.385-10.74-2.178c-1.69 3.208 11.653 6.977 11.76 7.005 4.31 1.118 15.257 3.487 19.08-2.12"/></g></g></g></g></svg>