<svg xmlns="http://www.w3.org/2000/svg" xml:space="preserve" style="fill-rule:evenodd;clip-rule:evenodd;stroke-linejoin:round;stroke-miterlimit:2" viewBox="0 0 525 525"><path d="m473.836 0 3.958 1.264c2.256.574 2.155.61 4.006.941 1.165.36 11.321 3.496 14.113 5.763 1.622.922 1.456 1.055 2.9 2.162 1.509 1.156 1.709.654 3.136 1.832l1.03.957c.769.901 1.012.404 1.837 1.204.793.77.316 1.023 1.161 1.825.214.203.657-.062.872.139.206.194-.038.635.163.834.827.818 1.078.372 1.823 1.182.2.218-.072.666.135.878.822.845 1.055.318 1.918 1.089.297 1.126.353 1.056 1.124 1.887l1.703 1.227c.277.426-.092.464.182.885.061.094 0 0 .892 1.072l1.109 1.93c.509 1.009.352 1.018 1.005 1.993.057.086 1.865 3.679 2.026 3.999l1.026 2c.175.92.839 1.874.941 2.02l1.024 2.999c.276 2.122.217 2.057 1.04 3.995.211 2.109.155 2.031.937 4.03l.122 1.969c.453 11.139.428 413.827.014 424.078l-.131 1.967c-.715 1.921-.794 1.873-.49 3.843l-.526 1.161c-.574 1.393-.692 1.362-.461 2.833l-.486.193c-.585 1.345-.719 1.303-.517 2.772-1.434 2.198-1.403 2.111-1.434 2.255-1.226 2.485-1.149 2.425-2.106 4.967-.189.218.17.348-1.961 3.026l-1.131 1.919-.869 1.086c-.936 1.077-.886 1.018-1.839 2.151-.77.854-.461.981-1.183 1.839-2.291 2.265-2.452 1.988-4.803 4.238-1.323 1.266-.963 1.508-2.219 2.787l-1.071.902-1.862 1.172c-1.082.902-2.762 1.876-3.014 2.021l-1.051.927c-.486.251-1.517-.785-2.107 1.814l-.901.18c-2.134.192-1.993.522-4.99 2.058-.927.159-1.871.845-2.015.95-2.113.254-2.052.193-3.995 1.042-1.637.214-1.559.318-3.01 1.001-2.623.219-2.559.182-5.03.965l-1.971.099-422.073-.025-1.973-.085c-1.878-.796-1.833-.907-3.851-.49l-.185-.439c-1.841-.79-1.785-.919-3.807-.553l-.195-.473c-1.381-.605-1.343-.741-2.801-.529l-.203-.474c-2.056-1.006-1.971-.966-4.055-1.919-3.135-1.966-3.576-1.216-6.162-3.791-.176-.175-.468.434-2.785-1.357-.406-.314-4.804-3.713-5.047-3.956-2.585-3.41-2.515-3.386-5.987-6.047-2.601-2.604-1.581-3.285-4.09-5.954-1.281-1.363-1.486-1.217-1.979-3.029-.32-1.177-1.68-.611-5.79-14.103l-.473-2.897c-.788-3.483-.628-3.446-1.009-7.054C-.261 466.366.048 58.496.231 53.153c.045-.482.154-.459.78-6.003.659-2.818.672-2.749.899-4.013l.889-3.03C10.455 18.951 24.168 8.736 39.784 2.998l3.034-.895c2.095-.348 1.989-.403 4.017-.916l5.944-.562C65.791-.632 468.129.606 473.832.001Z" style="fill:#2669b2;fill-opacity:1"/><path d="m284.079 250.015.69.219c.285-.144.515.672.8.528.237-.12 24.687-59.507 95.202-48.313 66.902 10.621 60.541 74.152 60.541 123.665 0 98.906.09 99.138-.675 99.778-.941.788-71.544.903-72.545-.061-2.888-2.781 3.045-120.007-3.561-142.633-10.207-34.959-50.138-25.268-61.305-10.753-16.567 21.533-13.7 47.888-13.875 150.665-.007 4.159-2.21 3.283-26.527 3.283-44.666 0-45.412.239-45.856-1.327-.162-.572-.145-.576-.145-205.952 0-4.601-1.352-10.869 3.002-10.878 5.037-.01 61.926-.129 62.959.067 1.894.359 1.677 1.273 1.647 32.811-.001.713-.003 3.652-.353 8.901ZM86.972 213.113c.174-3.131-1.22-4.462 1.872-4.852.35-.044 68.686-.039 69.958.006 2.493.089 1.903 4.434 1.903 5.846 0 210.901.111 211.279-.926 211.927-.951.594-71.233.555-71.922.018-.996-.778-.885-1.09-.886-212.945Zm-3.9-72.999c.647-7.368.482-7.319 1.072-9.928 9.423-41.668 68.228-42.249 78.796-2.104 12.483 47.417-47.778 77.131-73.746 34.806-6.286-10.245-4.996-10.758-6.123-22.774Z" style="fill:#fefefe"/><path d="M-.269 50.104c.386 2.496.352 2.418.503 3.049-.183 5.344-.491 413.213.164 417.994-.498 1.503-.446 1.458-.663 2.975-1.45-4.119-1.18-4.221-1.18-32.009 0-354.86.008-386.178-.024-387.004-.105-2.677.334-2.543 1.198-5.006Z" style="fill:#2568b1;fill-opacity:.14"/><path d="M49.812-.002c.179-.067 1.794-1.136 4.005-1.155 25.6-.221 25.585.074 320.007.074 96.624 0 96.688-.144 100.012 1.083-5.703.605-408.041-.633-421.053.624-1.465-.48-1.387-.492-2.971-.626" style="fill:#2568b1;fill-opacity:.17"/><path d="m50.789 524.298 422.073.025c-1.578 1.041-1.739.93-215.038.93-205.337 0-205.513.115-207.035-.955" style="fill:#225e9f;fill-opacity:.21"/><path d="M524.019 50.076c.978 1.563.848 1.7.848 61.038 0 361.384.098 361.5-.834 363.04.414-10.251.439-412.939-.014-424.078" style="fill:#1d5089;fill-opacity:.33"/><path d="m37.779 2.983 2.008.015C24.172 8.736 10.458 18.951 2.802 40.107l-.106-3.028c.646-2.673 1.806-2.263 1.927-5.025.011-.251.058-1.318 1.485-2.769 1.311-1.333 1.42-3.201 2.977-5.011 3.533-4.107 4.378-5.656 4.675-6.202 2.744-1.185 2.792-1.204 4.024-4.022.612-.333 13.565-10.55 19.995-11.067" style="fill:#2362a6;fill-opacity:.18"/><path d="M1.88 481.099c4.11 13.492 5.47 12.926 5.79 14.103.492 1.812.698 1.666 1.979 3.029 2.509 2.669 1.489 3.35 4.09 5.954l-.911-.074c-.579-.551-5.314-5.062-5.964-8.018-.13-.593-4.906-6.757-5.186-11.953z" style="fill:#2361a6;fill-opacity:.17"/><path d="M481.8 2.205c1.921-.229 1.908-.232 2.074-.247.53-.046.439.058.988.011 3.116.809 2.838 1.447 5.953 2.167 2.326.537 5.632 3.501 6.061 3.886l-.963-.053c-2.792-2.267-12.948-5.403-14.113-5.763Z" style="fill:#2260a2;fill-opacity:.21"/><path d="M19.726 510.231c.242.243 4.641 3.643 5.047 3.956 2.317 1.791 2.61 1.182 2.785 1.357 2.587 2.575 3.028 1.825 6.162 3.791l-.941-.112c-3.903-.315-3.201-2.11-6.93-3.151-1.653-.462-5.584-4.519-6.018-4.968z" style="fill:#215b9b;fill-opacity:.19"/><path d="m12.828 504.111.911.074c3.473 2.661 3.403 2.637 5.987 6.047l.105.874c-2.232-1.842-2.657-1.189-4.731-3.266-1.619-1.622-.874-2.028-2.272-3.728Z" style="fill:#2465ac;fill-opacity:.14"/><path d="M502.811 12.129c1.188 1.012 1.528.322 2.721 1.325 4.7 3.953 5.193 5.955 5.355 6.616-.862-.771-1.095-.244-1.918-1.089-.207-.212.066-.66-.135-.878-.745-.81-.996-.364-1.823-1.182-.201-.199.043-.64-.163-.834-.214-.202-.658.063-.872-.139-.845-.802-.368-1.055-1.161-1.825-.825-.801-1.068-.304-1.837-1.204z" style="fill:#215c9c;fill-opacity:.16"/><path d="M.399 471.147c.381 3.609.22 3.571 1.009 7.054l-.727 2.946c-1.261-3.407-.918-3.402-.945-7.025.217-1.517.165-1.472.663-2.975" style="fill:#225fa2;fill-opacity:.22"/><path d="M510.9 504.165c-.626 2.308-4.586 6.367-7.023 7.025 1.256-1.279.897-1.521 2.219-2.787 2.352-2.25 2.512-1.973 4.803-4.238Z" style="fill:#205a9a;fill-opacity:.18"/><path d="m495.913 7.968.963.053c4.014.92 4.323 2.394 4.953 3.088l.121.853c-1.427-1.178-1.627-.675-3.136-1.832-1.444-1.107-1.278-1.24-2.9-2.162Z" style="fill:#2260a3;fill-opacity:.18"/><path d="M.703 44.095c.328 2.901.278 2.812.311 3.055-.626 5.544-.735 5.521-.78 6.003-.152-.631-.117-.553-.503-3.049.049-2.024-.701-2.146.972-6.009" style="fill:#225ea0;fill-opacity:.23"/><path d="M49.812-.002c1.584.135 1.506.147 2.971.626l-5.944.562-3.035-.203c2.971-1.024 2.942-.879 6.008-.986Z" style="fill:#215c9b;fill-opacity:.25"/><path d="M473.836 0c3.637.083 3.622-.212 7.012.963l-3.054.301z" style="fill:#215c9d;fill-opacity:.18"/><path d="m477.794 1.264 3.054-.301c2.152.17 2.058.191 4.013 1.007-.549.048-.458-.057-.988-.011-.166.014-.154.018-2.074.247-1.851-.331-1.749-.367-4.006-.941Z" style="fill:#215d9e;fill-opacity:.22"/><path d="M1.718 40.086c.14 1.559.051 1.485.195 3.051-.227 1.265-.24 1.196-.899 4.013-.033-.243.018-.155-.311-3.055.149-2.082.17-2.041 1.015-4.009" style="fill:#215d9f;fill-opacity:.22"/><path d="M515.897 27.072c.483.575 2.147 1.329 2.987 5.013l.044.98c-.161-.32-1.969-3.914-2.026-3.999-.653-.975-.496-.984-1.005-1.993Z" style="fill:#1f5591;fill-opacity:.22"/><path d="m43.804.984 3.035.203c-2.028.513-1.923.568-4.017.916l-3.023-.089c1.97-.833 1.923-.853 4.005-1.03" style="fill:#215b9b;fill-opacity:.24"/><path d="M17.784 14.05c-1.232 2.818-1.279 2.837-4.024 4.022 1.83-2.247 1.79-2.205 4.024-4.022" style="fill:#1e548f;fill-opacity:.05"/><path d="m1.408 478.202.473 2.897-.202 3.041c-.616-1.529-.597-1.461-.998-2.992z" style="fill:#225fa1;fill-opacity:.21"/><path d="m2.696 37.078.106 3.028-.889 3.03c-.144-1.566-.056-1.491-.195-3.051.368-1.553.368-1.494.978-3.008Z" style="fill:#215d9d;fill-opacity:.22"/><path d="M493.872 518.207c-2.197 1.691-2.245 1.559-4.99 2.058 2.997-1.536 2.856-1.866 4.99-2.058" style="fill:#205896;fill-opacity:.22"/><path d="m39.799 2.013 3.023.089-3.034.895-2.008-.015c.924-.701.866-.694 2.019-.969" style="fill:#225d9f;fill-opacity:.24"/><path d="M479.863 523.259c-2.049 1.477-2.197.825-5.03.965 2.471-.783 2.407-.746 5.03-.965" style="fill:#1f5794;fill-opacity:.22"/><path d="m32.78 519.224.941.112c2.084.953 1.999.913 4.055 1.919-2.716-.494-2.539-.822-4.996-2.031" style="fill:#1f5691;fill-opacity:.24"/><path d="M519.989 489.177c-.531 2.689-.861 2.484-2.106 4.967.957-2.541.88-2.482 2.106-4.967" style="fill:#1e5590;fill-opacity:.25"/><path d="m500.945 513.264-.12.85c-.853.768-.778.764-1.953 1.083l-.941.088c.251-.146 1.932-1.119 3.014-2.021" style="fill:#225ea0;fill-opacity:.18"/><path d="m482.872 522.258.991-.022c-1.753 1.29-1.855.851-4.001 1.023 1.45-.683 1.373-.787 3.01-1.001" style="fill:#1f5794;fill-opacity:.21"/><path d="M486.868 521.216c-1.31.965-1.354.728-3.004 1.02l-.991.022c1.943-.849 1.882-.789 3.995-1.042" style="fill:#1e5590;fill-opacity:.23"/><path d="M521.919 40.083c1.246 1.729.844 1.823 1.04 3.995-.823-1.937-.765-1.872-1.04-3.995" style="fill:#1e548f;fill-opacity:.24"/><path d="M522.959 44.077c1.219 1.813.786 1.889.937 4.03-.782-1.998-.727-1.92-.937-4.03" style="fill:#1e548f;fill-opacity:.24"/><path d="M44.966 523.723c2.017-.417 1.973-.306 3.851.49-1.952-.136-1.894-.012-3.851-.49" style="fill:#215d9d;fill-opacity:.22"/><path d="M40.974 522.73c2.022-.366 1.966-.237 3.807.553-1.986-.194-1.887-.109-3.807-.553" style="fill:#205896;fill-opacity:.24"/><path d="M523.902 476.12c-.154 2.012-.059 1.945-.49 3.843-.304-1.971-.225-1.922.49-3.843" style="fill:#205998;fill-opacity:.25"/><path d="M518.885 32.085c1.013 1.328.783 1.353 1.069 2.979l-1.026-2z" style="fill:#205895;fill-opacity:.19"/><path d="M496.881 516.213c-1.071.88-1.942 1.666-2.107 1.814.59-2.599 1.622-1.563 2.107-1.814" style="fill:#1d518a;fill-opacity:.2"/><path d="M520.895 37.084c.98 1.329.738 1.344 1.024 2.999z" style="fill:#1f5693;fill-opacity:.21"/><path d="m513.923 500.175-1.839 2.151c.953-1.133.904-1.075 1.839-2.151" style="fill:#205997;fill-opacity:.24"/><path d="M502.807 512.092a106 106 0 0 0-1.981 2.022l.12-.85 1.862-1.172Z" style="fill:#1e528c;fill-opacity:.2"/><path d="M510.887 20.071c.146.171.909 1.067 1.909 2.068l-.785-.181c-.77-.832-.827-.762-1.124-1.887" style="fill:#1c4f87;fill-opacity:.22"/><path d="M522.887 481.125c-.158 1.478-.149 1.402-.461 2.833-.232-1.471-.113-1.44.461-2.833" style="fill:#215d9e;fill-opacity:.22"/><path d="M37.979 521.729c1.458-.212 1.419-.076 2.801.529z" style="fill:#205a99;fill-opacity:.23"/><path d="m512.011 21.958.785.181.918 1.046z" style="fill:#225ea0;fill-opacity:.17"/><path d="m521.94 484.15-.517 2.772c-.202-1.469-.069-1.426.517-2.772" style="fill:#205a9a;fill-opacity:.24"/><path d="m497.931 515.286.941-.088-1.992 1.016z" style="fill:#1f5794;fill-opacity:.2"/><path d="m501.829 11.109.983 1.02.168.79-1.03-.957z" style="fill:#205a9a;fill-opacity:.2"/><path d="M514.788 25.141c.775.895.776.798 1.109 1.93z" style="fill:#205b9a;fill-opacity:.21"/><path d="m515.922 497.17-1.131 1.919z" style="fill:#1f5591;fill-opacity:.25"/></svg>